<svg id="Layer_1" data-name="Layer 1" xmlns="http://www.w3.org/2000/svg" viewBox="0 0 495 62"><title>logo_mobile</title><path d="M25.78,34l.47,1.2c.14-.42.3-.82.47-1.2s.35-.77.56-1.16L38.19,13a1.27,1.27,0,0,1,.61-.63,2.67,2.67,0,0,1,.9-.11h3.22V44.53H39.09V20.84q0-.48,0-1c0-.36,0-.72.06-1.1l-11,20.16a1.71,1.71,0,0,1-1.57,1h-.63a1.71,1.71,0,0,1-1.57-1L13.06,18.65c0,.39.08.78.1,1.15s0,.72,0,1V44.53H9.37V12.29h3.22a2.67,2.67,0,0,1,.9.11,1.22,1.22,0,0,1,.6.63L25.23,32.87A7.49,7.49,0,0,1,25.78,34Z"/><path d="M80.72,28.42a18.54,18.54,0,0,1-1.15,6.65,15.2,15.2,0,0,1-3.24,5.21,14.44,14.44,0,0,1-5,3.38,18,18,0,0,1-13,0,14.58,14.58,0,0,1-5-3.38,15.51,15.51,0,0,1-3.24-5.21,18.76,18.76,0,0,1-1.14-6.65,18.72,18.72,0,0,1,1.14-6.65,15.45,15.45,0,0,1,3.24-5.22,14.66,14.66,0,0,1,5-3.41,18,18,0,0,1,13,0,14.51,14.51,0,0,1,5,3.41,15.15,15.15,0,0,1,3.24,5.22A18.5,18.5,0,0,1,80.72,28.42Zm-4.48,0a16.35,16.35,0,0,0-.81-5.33,11.43,11.43,0,0,0-2.29-4,10,10,0,0,0-3.6-2.51,12.38,12.38,0,0,0-4.73-.87,12.22,12.22,0,0,0-4.7.87,10,10,0,0,0-3.61,2.51,11.16,11.16,0,0,0-2.31,4,16.35,16.35,0,0,0-.81,5.33,16.29,16.29,0,0,0,.81,5.32,11.16,11.16,0,0,0,2.31,4,9.88,9.88,0,0,0,3.61,2.5,12.22,12.22,0,0,0,4.7.87,12.38,12.38,0,0,0,4.73-.87,9.85,9.85,0,0,0,3.6-2.5,11.43,11.43,0,0,0,2.29-4A16.29,16.29,0,0,0,76.24,28.42Z"/><path d="M106.55,12.29v3.55H91.07V26.55H103.6V30H91.07V41h15.48v3.56H86.68V12.29Z"/><path d="M129.34,17.33a1.83,1.83,0,0,1-.43.5,1,1,0,0,1-.58.17,1.58,1.58,0,0,1-.89-.38,14.93,14.93,0,0,0-1.28-.85,11.41,11.41,0,0,0-1.87-.84,8.2,8.2,0,0,0-2.65-.38,7.86,7.86,0,0,0-2.58.39A5.61,5.61,0,0,0,117.18,17,4.36,4.36,0,0,0,116,18.6a5.09,5.09,0,0,0-.38,2,3.62,3.62,0,0,0,.66,2.23,5.7,5.7,0,0,0,1.76,1.52,13.72,13.72,0,0,0,2.47,1.1c.93.3,1.87.62,2.84.95s1.91.7,2.83,1.11a10.15,10.15,0,0,1,2.48,1.57,7,7,0,0,1,1.75,2.32,7.58,7.58,0,0,1,.67,3.37,10.89,10.89,0,0,1-.72,4,9,9,0,0,1-2.11,3.23,9.67,9.67,0,0,1-3.39,2.16,12.43,12.43,0,0,1-4.58.79,14,14,0,0,1-5.71-1.14,13.4,13.4,0,0,1-4.4-3.07l1.26-2.07a2,2,0,0,1,.44-.42,1.06,1.06,0,0,1,.58-.16,1.79,1.79,0,0,1,1.08.5,18.61,18.61,0,0,0,1.51,1.12,12.28,12.28,0,0,0,2.21,1.11,8.65,8.65,0,0,0,3.16.51,8.43,8.43,0,0,0,2.77-.43,5.91,5.91,0,0,0,2.06-1.21,5.15,5.15,0,0,0,1.29-1.85,6.2,6.2,0,0,0,.45-2.41,4.1,4.1,0,0,0-.66-2.4,5.52,5.52,0,0,0-1.75-1.56,12.08,12.08,0,0,0-2.46-1.07l-2.83-.9a27.63,27.63,0,0,1-2.84-1.07A9.22,9.22,0,0,1,114,26.8a7.25,7.25,0,0,1-1.75-2.42,8.66,8.66,0,0,1-.66-3.59,8.61,8.61,0,0,1,.66-3.31,8.49,8.49,0,0,1,1.93-2.83,9.22,9.22,0,0,1,3.11-2,11.34,11.34,0,0,1,4.27-.74,13.59,13.59,0,0,1,4.92.85,11.34,11.34,0,0,1,3.9,2.48Z"/><path d="M151.05,41.36a22,22,0,0,0,2.4-.13,14.48,14.48,0,0,0,2.06-.37,12.52,12.52,0,0,0,1.82-.6,18.62,18.62,0,0,0,1.71-.79V32.36h-5a1,1,0,0,1-.68-.25.8.8,0,0,1-.26-.61V29H163V41.4a17.38,17.38,0,0,1-2.53,1.53A16.89,16.89,0,0,1,157.66,44a20.48,20.48,0,0,1-3.21.65,28.59,28.59,0,0,1-3.71.22,16.64,16.64,0,0,1-6.44-1.21,14.73,14.73,0,0,1-5-3.37A15.35,15.35,0,0,1,136,35.1a18.41,18.41,0,0,1-1.18-6.68,18.83,18.83,0,0,1,1.16-6.73,14.45,14.45,0,0,1,8.51-8.57,18.51,18.51,0,0,1,6.83-1.19,20.78,20.78,0,0,1,3.55.28,16.19,16.19,0,0,1,3,.81,14.29,14.29,0,0,1,2.6,1.28,16,16,0,0,1,2.23,1.7l-1.24,2a1.16,1.16,0,0,1-1,.61,1.68,1.68,0,0,1-.79-.25c-.37-.21-.79-.47-1.26-.77a9.93,9.93,0,0,0-1.7-.86,13,13,0,0,0-2.36-.71,15.23,15.23,0,0,0-3.23-.29,13.16,13.16,0,0,0-4.93.88,10.37,10.37,0,0,0-3.75,2.55,11.28,11.28,0,0,0-2.39,4,15.9,15.9,0,0,0-.83,5.28,16,16,0,0,0,.87,5.46,11.47,11.47,0,0,0,2.44,4.06,10.58,10.58,0,0,0,3.73,2.54A12.66,12.66,0,0,0,151.05,41.36Z"/><path d="M196.23,44.53h-3.37a1.49,1.49,0,0,1-1-.29,1.86,1.86,0,0,1-.54-.75l-3-7.78H173.89l-3,7.78a1.67,1.67,0,0,1-.54.72,1.43,1.43,0,0,1-.94.32H166l12.9-32.24h4.43Zm-21.13-12h12l-5.06-13.12a25.12,25.12,0,0,1-1-3c-.16.62-.33,1.18-.48,1.7s-.31,1-.46,1.36Z"/><path d="M226.83,44.53h-3.37a1.49,1.49,0,0,1-1-.29,1.86,1.86,0,0,1-.54-.75l-3-7.78H204.49l-3,7.78a1.67,1.67,0,0,1-.54.72,1.43,1.43,0,0,1-.94.32h-3.38L209.5,12.29h4.44Zm-21.13-12h12l-5.06-13.12a25.12,25.12,0,0,1-1-3c-.17.62-.33,1.18-.48,1.7s-.31,1-.46,1.36Z"/><path d="M235.69,31.07V44.53h-4.34V12.29h9.11a20,20,0,0,1,5.29.61,10.2,10.2,0,0,1,3.68,1.79,7.23,7.23,0,0,1,2.15,2.83,9.49,9.49,0,0,1,.7,3.7,9.25,9.25,0,0,1-.54,3.19,8.36,8.36,0,0,1-1.57,2.67,9.16,9.16,0,0,1-2.49,2,12.13,12.13,0,0,1-3.35,1.26,4.59,4.59,0,0,1,1.44,1.38l9.41,12.8h-3.87a1.92,1.92,0,0,1-1.76-.92l-8.37-11.52a2.43,2.43,0,0,0-.83-.78,3,3,0,0,0-1.35-.24Zm0-3.17h4.57a11.07,11.07,0,0,0,3.37-.46,6.9,6.9,0,0,0,2.43-1.31,5.4,5.4,0,0,0,1.47-2,6.57,6.57,0,0,0,.49-2.59,5.13,5.13,0,0,0-1.9-4.34,9.2,9.2,0,0,0-5.66-1.46h-4.77Z"/><path d="M287.83,28.42A18.27,18.27,0,0,1,286.68,35a14.79,14.79,0,0,1-3.24,5.09,14.46,14.46,0,0,1-5,3.27,17.5,17.5,0,0,1-6.48,1.16H259.88V12.29h12.06a17.5,17.5,0,0,1,6.48,1.15,14.5,14.5,0,0,1,5,3.29,14.93,14.93,0,0,1,3.24,5.1A18.23,18.23,0,0,1,287.83,28.42Zm-4.48,0a16.18,16.18,0,0,0-.81-5.31,11.2,11.2,0,0,0-2.3-4,9.8,9.8,0,0,0-3.6-2.48,12.41,12.41,0,0,0-4.7-.85h-7.67V41h7.67a12.41,12.41,0,0,0,4.7-.86,9.87,9.87,0,0,0,3.6-2.46,11.15,11.15,0,0,0,2.3-4A16.18,16.18,0,0,0,283.35,28.42Z"/><path d="M330.4,28.42A18.27,18.27,0,0,1,329.25,35,14.79,14.79,0,0,1,326,40.1a14.46,14.46,0,0,1-5,3.27,17.5,17.5,0,0,1-6.48,1.16H302.45V12.29h12.06A17.5,17.5,0,0,1,321,13.44a14.5,14.5,0,0,1,5,3.29,14.93,14.93,0,0,1,3.24,5.1A18.23,18.23,0,0,1,330.4,28.42Zm-4.48,0a16.18,16.18,0,0,0-.81-5.31,11.2,11.2,0,0,0-2.3-4,9.8,9.8,0,0,0-3.6-2.48,12.41,12.41,0,0,0-4.7-.85h-7.67V41h7.67a12.41,12.41,0,0,0,4.7-.86,9.87,9.87,0,0,0,3.6-2.46,11.15,11.15,0,0,0,2.3-4A16.18,16.18,0,0,0,325.92,28.42Z"/><path d="M356.2,12.29v3.55H340.72V26.55h12.54V30H340.72V41H356.2v3.56H336.34V12.29Z"/><path d="M379,17.33a1.83,1.83,0,0,1-.43.5A1,1,0,0,1,378,18a1.61,1.61,0,0,1-.89-.38,12.31,12.31,0,0,0-1.28-.85,11.41,11.41,0,0,0-1.87-.84,8.14,8.14,0,0,0-2.64-.38,7.92,7.92,0,0,0-2.59.39A5.71,5.71,0,0,0,366.83,17a4.33,4.33,0,0,0-1.13,1.59,4.91,4.91,0,0,0-.38,2A3.62,3.62,0,0,0,366,22.8a5.66,5.66,0,0,0,1.75,1.52,13.83,13.83,0,0,0,2.48,1.1l2.83.95c1,.33,1.92.7,2.84,1.11a10.09,10.09,0,0,1,2.47,1.57,7,7,0,0,1,1.76,2.32,7.73,7.73,0,0,1,.66,3.37,10.89,10.89,0,0,1-.72,4,9.12,9.12,0,0,1-2.1,3.23,9.71,9.71,0,0,1-3.4,2.16,12.39,12.39,0,0,1-4.58.79,14,14,0,0,1-5.7-1.14,13.19,13.19,0,0,1-4.4-3.07l1.26-2.07a2,2,0,0,1,.44-.42,1,1,0,0,1,.57-.16,1.74,1.74,0,0,1,1.08.5c.41.34.91.71,1.52,1.12A12,12,0,0,0,367,40.76a8.61,8.61,0,0,0,3.16.51,8.48,8.48,0,0,0,2.77-.43,5.86,5.86,0,0,0,2.05-1.21,5.05,5.05,0,0,0,1.3-1.85,6.2,6.2,0,0,0,.45-2.41A4,4,0,0,0,376,33a5.48,5.48,0,0,0-1.74-1.56,12.08,12.08,0,0,0-2.46-1.07l-2.84-.9a27.46,27.46,0,0,1-2.83-1.07,9.12,9.12,0,0,1-2.47-1.57,7.22,7.22,0,0,1-1.74-2.42,8.66,8.66,0,0,1-.66-3.59,8.61,8.61,0,0,1,.66-3.31,8.46,8.46,0,0,1,1.92-2.83,9.16,9.16,0,0,1,3.12-2,11.32,11.32,0,0,1,4.26-.74,13.64,13.64,0,0,1,4.93.85,11.3,11.3,0,0,1,3.89,2.48Z"/><path d="M391.5,44.53h-4.36V12.29h4.36Z"/><path d="M414.52,41.36a22,22,0,0,0,2.4-.13,14.23,14.23,0,0,0,2.06-.37,12.52,12.52,0,0,0,1.82-.6,18.62,18.62,0,0,0,1.71-.79V32.36h-5a1,1,0,0,1-.68-.25.83.83,0,0,1-.26-.61V29h9.9V41.4A17.19,17.19,0,0,1,421.13,44a20.48,20.48,0,0,1-3.21.65,28.59,28.59,0,0,1-3.71.22,16.64,16.64,0,0,1-6.44-1.21,14.73,14.73,0,0,1-5-3.37,15.18,15.18,0,0,1-3.29-5.21,18.21,18.21,0,0,1-1.19-6.68,18.83,18.83,0,0,1,1.16-6.73,15,15,0,0,1,3.31-5.21,14.82,14.82,0,0,1,5.2-3.36,18.51,18.51,0,0,1,6.83-1.19,20.78,20.78,0,0,1,3.55.28,16.19,16.19,0,0,1,3.05.81A14.29,14.29,0,0,1,424,14.3a16,16,0,0,1,2.23,1.7l-1.24,2a1.16,1.16,0,0,1-1,.61,1.68,1.68,0,0,1-.79-.25c-.37-.21-.79-.47-1.26-.77a9.93,9.93,0,0,0-1.7-.86,12.77,12.77,0,0,0-2.36-.71,15.23,15.23,0,0,0-3.23-.29,13.16,13.16,0,0,0-4.93.88,10.37,10.37,0,0,0-3.75,2.55,11.28,11.28,0,0,0-2.39,4,15.9,15.9,0,0,0-.83,5.28,16,16,0,0,0,.87,5.46A11.47,11.47,0,0,0,406,37.94a10.58,10.58,0,0,0,3.73,2.54A12.66,12.66,0,0,0,414.52,41.36Z"/><path d="M436.29,12.43a2.27,2.27,0,0,1,.64.6l18.68,24.3a11.39,11.39,0,0,1-.09-1.14c0-.37,0-.72,0-1.07V12.29h3.83V44.53h-2.21a1.86,1.86,0,0,1-.86-.18,2.12,2.12,0,0,1-.69-.61L436.91,19.46c0,.38,0,.75.07,1.11s0,.69,0,1v23h-3.83V12.29h2.25A2,2,0,0,1,436.29,12.43Z"/><path d="M483.71,17.33a1.83,1.83,0,0,1-.43.5,1,1,0,0,1-.58.17,1.56,1.56,0,0,1-.89-.38,13.79,13.79,0,0,0-1.29-.85,11.27,11.27,0,0,0-1.86-.84,8.2,8.2,0,0,0-2.65-.38,7.86,7.86,0,0,0-2.58.39A5.61,5.61,0,0,0,471.55,17a4.36,4.36,0,0,0-1.14,1.59,5.09,5.09,0,0,0-.38,2,3.62,3.62,0,0,0,.66,2.23,5.59,5.59,0,0,0,1.76,1.52,13.42,13.42,0,0,0,2.47,1.1l2.84.95c1,.33,1.91.7,2.83,1.11a10.34,10.34,0,0,1,2.48,1.57,7.14,7.14,0,0,1,1.75,2.32,7.72,7.72,0,0,1,.67,3.37,10.89,10.89,0,0,1-.72,4,9.14,9.14,0,0,1-2.11,3.23,9.62,9.62,0,0,1-3.4,2.16,12.34,12.34,0,0,1-4.57.79A14,14,0,0,1,469,43.75a13.3,13.3,0,0,1-4.4-3.07l1.26-2.07a2,2,0,0,1,.44-.42,1.06,1.06,0,0,1,.58-.16,1.79,1.79,0,0,1,1.08.5,18.61,18.61,0,0,0,1.51,1.12,12.28,12.28,0,0,0,2.21,1.11,8.65,8.65,0,0,0,3.16.51,8.43,8.43,0,0,0,2.77-.43,6,6,0,0,0,2.06-1.21,5.15,5.15,0,0,0,1.29-1.85,6.2,6.2,0,0,0,.45-2.41,4.1,4.1,0,0,0-.66-2.4A5.63,5.63,0,0,0,479,31.41a12.08,12.08,0,0,0-2.46-1.07l-2.84-.9a28.36,28.36,0,0,1-2.83-1.07,9.22,9.22,0,0,1-2.46-1.57,7.25,7.25,0,0,1-1.75-2.42,8.66,8.66,0,0,1-.66-3.59,8.61,8.61,0,0,1,.66-3.31,8.49,8.49,0,0,1,1.93-2.83,9.12,9.12,0,0,1,3.11-2,11.34,11.34,0,0,1,4.27-.74,13.59,13.59,0,0,1,4.92.85,11.34,11.34,0,0,1,3.9,2.48Z"/></svg>
